<svg xmlns="http://www.w3.org/2000/svg" version="1.1" xmlns:xlink="http://www.w3.org/1999/xlink" xmlns:svgjs="http://svgjs.dev/svgjs" width="100%" height="100%" viewBox="0 0 1000 600"><rect width="1000" height="600" x="0" y="0" fill="#111144"/><g><circle r="166.66666666666666" cx="501.61368815104163" cy="523.8359541139305" fill="BLACK" transform="matrix(0.3731933242857439,0,0,0.3731933242857439,0,104.50792843138184)"/><path d="M477.6631647750464 497.16831663750713L477.6631647750464 497.16831663750713Q477.6631647750464 503.72380852946543 500.6073863969005 503.72380852946543L500.6073863969005 503.72380852946543Q506.24280925139095 503.72380852946543 508.97426420637356 502.51621791778894L508.97426420637356 502.51621791778894Q516.162303561591 499.09471118470543 526.6280888627875 499.09471118470543Q537.0938741639841 499.09471118470543 537.0938741639841 504.4426124649872L537.0938741639841 504.4426124649872Q537.0938741639841 506.57027211413157 535.3112404038902 510.65307846789506Q533.5573588012171 514.7358848216586 532.694794078591 515.6559538591264Q531.832229355965 516.5760228965942 526.1680543440536 518.1286393973212Q520.5038793321423 519.710008055469 518.8362542017319 519.8537688425733Q517.1686290713214 519.9975296296777 516.6223380803249 520.1125382593611Q516.0472949319076 520.1987947316238 515.2997388389649 520.3138033613072Q514.5521827460223 520.4000598335699 511.9069842633023 520.8600943523038Q509.2905379380031 521.3201288710377 508.08294732632663 520.8025900374621L508.08294732632663 520.8025900374621Q474.6154360884343 537.2775762396204 462.0794954529351 557.001556230337L462.0794954529351 557.001556230337Q456.41532044102377 565.8859728733858 456.41532044102377 572.2689518208188L456.41532044102377 572.2689518208188Q456.41532044102377 582.2747026032814 470.27386031788296 582.2747026032814L470.27386031788296 582.2747026032814Q481.08467150813 582.2747026032814 497.7609228122344 573.7928161641248Q514.4371741163388 565.2821775675475 527.3181406408885 553.2062714507822Q540.2278593228589 541.1303653340169 540.2278593228589 532.2459486909681L540.2278593228589 532.2459486909681Q540.2278593228589 529.3994851063021 544.4544264637268 529.3994851063021L544.4544264637268 529.3994851063021Q554.2589121442434 529.3994851063021 554.2589121442434 541.0153567043335L554.2589121442434 541.0153567043335Q554.2589121442434 546.4782666142987 549.5148061697998 554.0113318585666Q544.7707001953563 561.5443971028344 536.2888137561998 569.2787274490483Q527.7781751596224 577.0130577952623 517.3698941732675 583.683558316904Q506.9616131869127 590.3540588385458 494.28191176430914 594.6093781368345Q481.6022103417056 598.8359452777024 472.8040501709195 598.8359452777024Q464.0058900001334 598.8359452777024 458.60048440500987 597.168320147292Q453.19507880988635 595.5006950168815 448.4509728354428 592.1654447560607L448.4509728354428 592.1654447560607Q438.1289483213506 585.006157558264 438.1289483213506 570.4575659033039L438.1289483213506 570.4575659033039Q438.1289483213506 562.5507226125649 442.38426761963933 554.4138620624587Q446.61083476050715 546.2770015123526 453.482600384095 539.6065009907109L453.482600384095 539.6065009907109Q466.1335496492777 527.0705603552117 480.5671326745543 518.7899390180012L480.5671326745543 518.7899390180012Q459.75057070184465 514.0458330435576 459.75057070184465 497.3695817394532L459.75057070184465 497.3695817394532Q459.75057070184465 478.56567078620446 488.67524106723954 462.98200146409306L488.67524106723954 462.98200146409306Q504.74769706550575 454.4138585526739 523.5516080187545 450.6760780879609L523.5516080187545 450.6760780879609Q532.4360246618032 448.8359400130252 538.3877212479233 448.8359400130252L538.3877212479233 448.8359400130252Q550.5211316795303 448.8359400130252 556.7028455250173 450.76233456022345L556.7028455250173 450.76233456022345Q560.4406259897304 452.5737204777383 562.7695507408208 455.88021858113825Q565.0984754919112 459.1579645271174 565.0984754919112 461.5156414356287Q565.0984754919112 463.9020705015609 564.4659280286521 465.82846504875914Q563.8621327228138 467.75485959595744 562.4532770091912 468.8474415779505L562.4532770091912 468.8474415779505Q560.4406259897304 470.3713059212566 557.9104361366938 471.17636632904095Q555.3802462836572 471.9814267368253 554.9777160797651 472.1826918387714L554.9777160797651 472.1826918387714Q547.0996249464467 475.5179420995923 541.4354499345354 475.5179420995923L541.4354499345354 475.5179420995923Q531.3146905223894 475.5179420995923 530.4233736423423 472.9014957742931L530.4233736423423 472.9014957742931Q530.6246387442884 470.285049448994 532.6372897637493 466.8347905584896L532.6372897637493 466.8347905584896Q523.0340691851789 467.2373207623818 512.7120446710867 470.71633181030705Q502.41877231441526 474.2240950156532 494.8857070701474 478.9106966752549Q487.3526418258796 483.6260504922775 482.4935272217526 488.65767804092974Q477.6631647750464 493.71805774700283 477.6631647750464 497.16831663750713Z " fill="#ddaa88" transform="matrix(0.3731933242857439,0,0,0.3731933242857439,0,104.50792843138184)"/><path d="M779.0005106815186 487.35672078507116L779.0005106815186 487.35672078507116Q779.0005106815186 491.8979505166737 794.8948147421274 491.8979505166737L794.8948147421274 491.8979505166737Q798.7986788973648 491.8979505166737 800.6908579521992 491.0614081976943L800.6908579521992 491.0614081976943Q805.6702765175528 488.69120496058594 812.9203099487077 488.69120496058594Q820.1703433798626 488.69120496058594 820.1703433798626 492.39589237320905L820.1703433798626 492.39589237320905Q820.1703433798626 493.8698002685538 818.935447575655 496.69811001367464Q817.7204694457087 499.5264197587955 817.1229392178661 500.16378533516075Q816.5254089900237 500.80115091152607 812.601627160525 501.8767053216424Q808.6778453310264 502.97217740602025 807.5226202238644 503.0717657773273Q806.3673951167023 503.1713541486344 805.9889593057354 503.25102484568004Q805.5906058205071 503.3107778684643 805.0727462897104 503.3904485655099Q804.5548867589135 503.4502015882942 802.7224607268635 503.7688843764768Q800.9099523690747 504.08756716465945 800.0734100500953 503.729049027954L800.0734100500953 503.729049027954Q776.8892372098087 515.1418763797446 768.205131231832 528.805400923075L768.205131231832 528.805400923075Q764.2813494023333 534.9599622698521 764.2813494023333 539.3816859558862L764.2813494023333 539.3816859558862Q764.2813494023333 546.3130365988584 773.881668396335 546.3130365988584L773.881668396335 546.3130365988584Q781.370713918627 546.3130365988584 792.9229649902475 540.4373226917412Q804.475216061868 534.5416911103623 813.3983341309817 526.1762679205683Q822.3413698743568 517.8108447307741 822.3413698743568 511.656283383997L822.3413698743568 511.656283383997Q822.3413698743568 509.68443363211696 825.2692679907848 509.68443363211696L825.2692679907848 509.68443363211696Q832.0611949139271 509.68443363211696 832.0611949139271 517.7311740337284L832.0611949139271 517.7311740337284Q832.0611949139271 521.5155321433972 828.7747786607938 526.7339627998879Q825.4883624076604 531.9523934563786 819.612648500543 537.310247832699Q813.7170169191643 542.6681022090195 806.5068188365321 547.2890026376677Q799.2966207539001 551.909903066316 790.5129264046163 554.8577188570052Q781.7292320553324 557.7856169734332 775.6344237313396 557.7856169734332Q769.5396154073467 557.7856169734332 765.7950926462007 556.6303918662711Q762.0505698850548 555.4751667591092 758.7641536319213 553.164716544785L758.7641536319213 553.164716544785Q751.6137085720735 548.2052156536929 751.6137085720735 538.126872477417L751.6137085720735 538.126872477417Q751.6137085720735 532.649512055528 754.5615243627628 527.0128102395477Q757.4894224791908 521.3761084235673 762.2497466276689 516.7552079949191L762.2497466276689 516.7552079949191Q771.0135233026914 508.07110201694235 781.0121957819215 502.33481182965494L781.0121957819215 502.33481182965494Q766.5917996166573 499.04839557652156 766.5917996166573 487.4961445049011L766.5917996166573 487.4961445049011Q766.5917996166573 474.46998553793594 786.6289799236404 463.6746060882492L786.6289799236404 463.6746060882492Q797.7629598357712 457.73913915834765 810.7891188027363 455.1498415043638L810.7891188027363 455.1498415043638Q816.9436801495135 453.8751103516332 821.0666387216263 453.8751103516332L821.0666387216263 453.8751103516332Q829.4718972599433 453.8751103516332 833.7541972261474 455.209594527148L833.7541972261474 455.209594527148Q836.3434948801313 456.46440800561714 837.9568264953059 458.7549405456798Q839.5701581104804 461.0255554114811 839.5701581104804 462.6588047009171Q839.5701581104804 464.3119716646145 839.1319692767293 465.64645584012925Q838.7136981172396 466.980940015644 837.7377320784303 467.7378116375778L837.7377320784303 467.7378116375778Q836.3434948801313 468.79344837343274 834.5907395451268 469.35114325275237Q832.8379842101224 469.908838132072 832.5591367704625 470.0482618519019L832.5591367704625 470.0482618519019Q827.1016940228349 472.358712066226 823.1779121933362 472.358712066226L823.1779121933362 472.358712066226Q816.1668908533184 472.358712066226 815.5494429512145 470.54620370843725L815.5494429512145 470.54620370843725Q815.6888666710444 468.73369535064853 817.0831038693434 466.34357443927877L817.0831038693434 466.34357443927877Q810.4306006660308 466.6224218789386 803.280155606183 469.03246046456974Q796.1496282205966 471.46241672446234 790.931197564106 474.70899762907294Q785.7127669076153 477.9754962079449 782.3466799574362 481.46108920369244Q779.0005106815186 484.96659987370145 779.0005106815186 487.35672078507116ZM829.0536261004536 557.4470165109892L827.9979893645985 557.1681690713294L827.5797182051089 557.2279220941136Q827.1016940228349 557.2279220941136 825.5879507789674 555.8735202443374Q824.0941252093613 554.4992007202998 823.7356070726559 554.1805179321173Q823.3770889359504 553.881752818196 822.8990647536764 553.5232346814905Q822.401122897141 553.164716544785 822.2218638287884 553.0252928249552Q822.062522434697 552.8858691051253 821.7836749950372 552.6070216654655Q821.5048275553775 552.3281742258057 821.3853215098089 552.1489151574528Q821.2857331385019 551.9895737633616 821.146309418672 551.7704793464861L821.146309418672 551.7704793464861Q820.9272150017964 551.3522081869963 820.9272150017964 550.5555012165398Q820.9272150017964 549.7388765718217 821.4251568583318 548.2052156536929L821.4251568583318 548.2052156536929Q822.1222754574812 545.815094742323 835.7858000008116 534.7209501787152Q849.4294068698807 523.6268056151072 875.342301083981 503.4502015882942L875.342301083981 503.4502015882942Q876.3182671227904 499.6658434786254 877.7921750181351 494.2084007309978Q879.2660829134797 488.7509579833702 880.1424605809821 485.424706381714Q881.0188382484843 482.0984547800577 881.9151335902479 478.53319108726447L881.9151335902479 478.53319108726447Q883.6678889252524 471.74126416412213 883.6678889252524 470.76529812531277Q883.6678889252524 469.76941441224204 883.0504410231486 469.76941441224204L883.0504410231486 469.76941441224204Q880.4611433691647 469.76941441224204 871.4583546030052 477.79623713959217Q862.4555658368458 485.80314219268087 862.4555658368458 488.25301612683484L862.4555658368458 488.25301612683484Q862.4555658368458 489.86634774200945 861.260505381161 489.86634774200945L861.260505381161 489.86634774200945Q860.5036337592272 489.86634774200945 858.9898905153597 488.2330984525734Q857.4960649457536 486.579931488876 857.3168058774008 485.2056119648384Q857.1375468090481 483.8512101150622 856.9184523921725 482.8752440762529L856.9184523921725 482.8752440762529Q856.5798519297285 480.7042175817587 856.5798519297285 479.36973340624394L856.5798519297285 479.36973340624394Q856.5798519297285 475.8044697134507 863.2921081558253 469.5304023211051Q870.0242820561834 463.2563349287595 878.1108578063177 458.49601078028144Q886.1974335564521 453.73568663180333 889.842367946291 453.73568663180333Q893.4873023361298 453.73568663180333 895.6782465048855 456.26523126300293Q897.8891083479025 458.7748582199412 897.8891083479025 463.53518236841927Q897.8891083479025 468.2955065168974 891.8739707209552 490.5634663411589L891.8739707209552 490.5634663411589Q931.1516243644649 460.3881898351158 933.2429801619134 459.17321170516954Q935.3542536336233 457.9383159009618 939.5568829027818 457.9383159009618Q943.7595121719403 457.9383159009618 948.1015651609287 459.63131821318206L948.1015651609287 459.63131821318206Q949.4360493364435 460.1890130925016 949.4360493364435 461.0653907600039Q949.4360493364435 461.94176842750613 948.8982721313853 462.6986400494399Q948.3804126005884 463.47542934563506 947.0060930765509 464.5509837557515Q945.6516912267746 465.64645584012925 941.5088149804004 468.61418930508006Q937.3858564082876 471.60184044429224 931.5698955239545 475.8642227362349L931.5698955239545 475.8642227362349Q918.0657123747154 485.80314219268087 886.6953754129875 510.2421285114366L886.6953754129875 510.2421285114366Q879.9632015126293 536.0952697027528 879.9632015126293 543.644068247829L879.9632015126293 543.644068247829Q879.9632015126293 545.6159179997089 880.4213080206418 545.6159179997089Q880.8794145286544 545.6159179997089 881.6362861505881 545.0582231203894L881.6362861505881 545.0582231203894Q885.7791623969624 542.6083491862353 895.2002223226115 534.3624320420097Q904.6212822482605 526.1364325720455 906.4736259545722 523.9454884032898Q908.3259696608836 521.7346265602728 909.0230882600332 521.794379583057L909.0230882600332 521.794379583057Q910.0787249958881 521.794379583057 910.0787249958881 524.3239242142567L910.0787249958881 524.3239242142567L909.9990542988426 525.5189846699416Q909.9990542988426 525.5787376927258 910.6762552237307 527.510752096083Q911.3335384743573 529.4427664994403 911.3335384743573 531.9922288049013Q911.3335384743573 534.5416911103623 910.357572435548 536.0554343542299Q909.3816063967387 537.549259923836 907.4495919933814 539.799957115376Q905.5175775900243 542.0307366326542 902.091737617061 545.2972352115263Q898.6658976440976 548.5438161161369 894.8018688373832 551.3522081869963L894.8018688373832 551.3522081869963Q885.420644260257 558.2835588299686 877.0950564189857 558.2835588299686L877.0950564189857 558.2835588299686Q873.1712745894869 558.2835588299686 870.0242820561834 555.275990016495Q866.8772895228799 552.2684212030215 866.8772895228799 545.6358356739704Q866.8772895228799 539.0231678191807 870.5023062384573 523.4077111982317L870.5023062384573 523.4077111982317Q830.467780973014 557.0287453514995 829.9698391164786 557.2279220941136Q829.4718972599433 557.4470165109892 829.0536261004536 557.4470165109892L829.0536261004536 557.4470165109892ZM990.3867876179119 515.0024526599148L990.3867876179119 515.0024526599148Q992.0797899301322 515.0024526599148 992.0797899301322 517.7112563594671Q992.0797899301322 520.400142384758 990.8847294744472 526.9928925652862L990.8847294744472 526.9928925652862Q989.9685164584222 531.394698577059 980.8063862981714 539.5808626985004L980.8063862981714 539.5808626985004Q969.7321594088249 549.4002761093777 956.5068236992456 553.5829877042747L956.5068236992456 553.5829877042747Q948.5198363204183 556.1125323354745 940.911284752558 556.1125323354745Q933.322650858959 556.1125323354745 927.0485834666134 549.699041223299Q920.7944337485292 543.3054677853847 920.7944337485292 534.5018557618396Q920.7944337485292 525.7181614125557 924.3198620927997 516.2971014869066Q927.8652081113314 506.8959592355189 933.8405103897558 498.3114416288492Q939.8357303424416 489.7269240221795 947.9820591153602 481.8196073403979Q956.1483055625401 473.9122906586163 964.9718352603468 468.0963297742833Q973.7953649581535 462.2803688899502 983.4554369749396 458.8545289169869Q993.1155089917256 455.4286889440236 1001.7996149697025 455.4286889440236L1001.7996149697025 455.4286889440236Q1008.6712125898905 455.4286889440236 1013.4912897611529 460.3881898351158L1013.4912897611529 460.3881898351158Q1016.0208343923525 463.0571581861454 1016.0208343923525 467.08052838695113Q1016.0208343923525 471.1038985877569 1012.0970525628538 477.2385422602726Q1008.1732707333551 483.35326825852684 1002.8154163570346 488.39243984666473Q997.457561980714 493.45152910906404 991.7611071419494 496.93712210481164Q986.0447346289235 500.4426327748206 982.6188946559602 500.4426327748206Q979.1930546829968 500.4426327748206 976.7431807488429 498.3114416288492Q974.2933068146889 496.18025048287785 974.2933068146889 494.4872481706576Q974.2933068146889 492.8141635326988 975.0302607623612 490.7825607580345Q975.7472970357721 488.7509579833702 976.8826044686728 488.7509579833702L976.8826044686728 488.7509579833702Q976.603757029013 489.10947612007567 976.603757029013 489.4480765825197L976.603757029013 489.4480765825197Q976.603757029013 490.28461890149913 979.0137956146441 490.28461890149913Q981.4238342002753 490.28461890149913 987.1003713647785 486.0222366095564Q992.7769085292816 481.7399366433523 997.357973609407 476.4219176155546Q1001.9390386895324 471.1038985877569 1001.9390386895324 468.4349302367273L1001.9390386895324 468.4349302367273Q1001.9390386895324 466.6224218789386 999.4891647553784 466.6224218789386L999.4891647553784 466.6224218789386Q992.9163322491115 466.6224218789386 981.3242458289683 472.7570655514543Q969.7321594088249 478.8717915497086 959.1558743760138 488.5318635664946Q948.5795893432027 498.21185325754215 940.7718610327281 511.47702431564426Q932.9641327222536 524.7421953737464 932.9641327222536 535.3184804065576L932.9641327222536 535.3184804065576Q932.9641327222536 539.7202864183303 935.3144182851005 542.3892547693597Q937.6647038479474 545.0582231203894 942.5246163677325 545.0582231203894Q947.4044465617792 545.0582231203894 954.0569497650916 542.2498310495298Q960.7094529684041 539.4414389786704 966.6847552468284 535.3782334293419Q972.6799751995143 531.3349455542746 977.997994227312 527.0526455880705Q983.3160132551097 522.7902632961277 986.502841136936 519.5636000657787Q989.6896690187624 516.3369368354295 989.769339715808 515.6796535848027Q989.8290927385923 515.0024526599148 990.3867876179119 515.0024526599148ZM1031.2180198538117 487.35672078507116L1031.2180198538117 487.35672078507116Q1031.2180198538117 491.8979505166737 1047.1123239144208 491.8979505166737L1047.1123239144208 491.8979505166737Q1051.0361057439195 491.8979505166737 1052.9282847987538 491.0614081976943L1052.9282847987538 491.0614081976943Q1057.887785689846 488.69120496058594 1065.137819121001 488.69120496058594Q1072.387852552156 488.69120496058594 1072.387852552156 492.39589237320905L1072.387852552156 492.39589237320905Q1072.387852552156 493.8698002685538 1071.152956747948 496.69811001367464Q1069.9379786180018 499.5264197587955 1069.3404483901595 500.16378533516075Q1068.742918162317 500.80115091152607 1064.8191363328183 501.8767053216424Q1060.8953545033196 502.97217740602025 1059.7401293961575 503.0717657773273Q1058.5849042889954 503.1713541486344 1058.2064684780287 503.25102484568004Q1057.8280326670617 503.3107778684643 1057.2902554620036 503.3904485655099Q1056.7723959312068 503.4502015882942 1054.959887573418 503.7688843764768Q1053.127461541368 504.08756716465945 1052.2909192223885 503.729049027954L1052.2909192223885 503.729049027954Q1029.1067463821018 515.1418763797446 1020.4226404041251 528.805400923075L1020.4226404041251 528.805400923075Q1016.5187762488879 534.9599622698521 1016.5187762488879 539.3816859558862L1016.5187762488879 539.3816859558862Q1016.5187762488879 546.3130365988584 1026.0991775686282 546.3130365988584L1026.0991775686282 546.3130365988584Q1033.58822309092 546.3130365988584 1045.1404741625406 540.4373226917412Q1056.6927252341611 534.5416911103623 1065.6357609775364 526.1762679205683Q1074.55887904665 517.8108447307741 1074.55887904665 511.656283383997L1074.55887904665 511.656283383997Q1074.55887904665 509.68443363211696 1077.5066948373394 509.68443363211696L1077.5066948373394 509.68443363211696Q1084.2986217604819 509.68443363211696 1084.2986217604819 517.7311740337284L1084.2986217604819 517.7311740337284Q1084.2986217604819 521.5155321433972 1080.992287833087 526.7339627998879Q1077.7058715799535 531.9523934563786 1071.8301576728363 537.310247832699Q1065.954443765719 542.6681022090195 1058.7243280088255 547.2890026376677Q1051.5141299261934 551.909903066316 1042.7304355769095 554.8577188570052Q1033.9467412276256 557.7856169734332 1027.8519329036328 557.7856169734332Q1021.7571245796398 557.7856169734332 1018.012601818494 556.6303918662711Q1014.268079057348 555.4751667591092 1010.9816628042146 553.164716544785L1010.9816628042146 553.164716544785Q1003.8312177443668 548.2052156536929 1003.8312177443668 538.126872477417L1003.8312177443668 538.126872477417Q1003.8312177443668 532.649512055528 1006.7790335350561 527.0128102395477Q1009.7268493257454 521.3761084235673 1014.4871734742236 516.7552079949191L1014.4871734742236 516.7552079949191Q1023.2310324749847 508.07110201694235 1033.2496226284761 502.33481182965494L1033.2496226284761 502.33481182965494Q1018.829226463212 499.04839557652156 1018.829226463212 487.4961445049011L1018.829226463212 487.4961445049011Q1018.829226463212 474.46998553793594 1038.8464890959335 463.6746060882492L1038.8464890959335 463.6746060882492Q1049.9804690080643 457.73913915834765 1063.0066279750295 455.1498415043638L1063.0066279750295 455.1498415043638Q1069.1611893218067 453.8751103516332 1073.304065568181 453.8751103516332L1073.304065568181 453.8751103516332Q1081.709324106498 453.8751103516332 1085.9717063984406 455.209594527148L1085.9717063984406 455.209594527148Q1088.5610040524246 456.46440800561714 1090.174335667599 458.7549405456798Q1091.7876672827738 461.0255554114811 1091.7876672827738 462.6588047009171Q1091.7876672827738 464.3119716646145 1091.3693961232839 465.64645584012925Q1090.9511249637944 466.980940015644 1089.9552412507235 467.7378116375778L1089.9552412507235 467.7378116375778Q1088.5610040524246 468.79344837343274 1086.8082487174202 469.35114325275237Q1085.0554933824155 469.908838132072 1084.7766459427557 470.0482618519019L1084.7766459427557 470.0482618519019Q1079.319203195128 472.358712066226 1075.3954213656293 472.358712066226L1075.3954213656293 472.358712066226Q1068.404317699873 472.358712066226 1067.7669521235077 470.54620370843725L1067.7669521235077 470.54620370843725Q1067.9063758433376 468.73369535064853 1069.3006130416366 466.34357443927877L1069.3006130416366 466.34357443927877Q1062.6481098383242 466.6224218789386 1055.5175824527378 469.03246046456974Q1048.3671373928898 471.46241672446234 1043.1487067363992 474.70899762907294Q1037.9302760799085 477.9754962079449 1034.5841068039908 481.46108920369244Q1031.2180198538117 484.96659987370145 1031.2180198538117 487.35672078507116ZM1115.9478061618697 547.0898258950535L1115.9478061618697 547.0898258950535Q1102.9216471949044 558.7018299894582 1084.8563166398014 558.7018299894582L1084.8563166398014 558.7018299894582Q1073.921513470285 558.7018299894582 1069.2408600188523 554.0809295608101L1069.2408600188523 554.0809295608101Q1066.5718916678227 551.5713026038718 1066.5718916678227 545.1976468402192L1066.5718916678227 545.1976468402192Q1066.5718916678227 535.3782334293419 1081.4902296896223 532.5100883356981L1081.4902296896223 532.5100883356981Q1086.1908008153162 531.6137929939345 1092.763633321583 531.6137929939345Q1099.3563835021112 531.6137929939345 1110.7692108539018 534.0636669280884L1110.7692108539018 534.0636669280884Q1116.8441015036333 527.271740004946 1125.289195390473 514.0663219696282Q1133.7342892773129 500.8609039343103 1138.6340371456208 493.7303765487239Q1143.5337850139288 486.579931488876 1149.7680170577516 479.13072131510694Q1156.0022491015743 471.66159346707644 1162.7941760247168 465.64645584012925L1162.7941760247168 465.64645584012925Q1176.5772066136155 453.3174154723136 1190.1013074371162 453.3174154723136L1190.1013074371162 453.3174154723136Q1196.1164450640636 453.3174154723136 1198.785413415093 456.36481963431004Q1201.4344640918612 459.4122237963065 1201.4344640918612 463.5750177169421Q1201.4344640918612 467.7378116375778 1197.630188307931 473.27492508225106Q1193.8059948497394 478.8120385269243 1188.8066586101243 483.07442081886705Q1183.787404696248 487.35672078507116 1178.9274921764627 490.324454250022Q1174.0675796566775 493.31210538923415 1171.259187585818 493.31210538923415Q1168.4507955149584 493.31210538923415 1166.4191927402942 490.9219844778644Q1164.4075076398913 488.5318635664946 1164.4075076398913 486.340919397739Q1164.4075076398913 484.130057554722 1164.9851201934723 483.2536798872198Q1165.5826504213148 482.37730221971754 1166.22001599768 482.37730221971754Q1166.8573815740453 482.37730221971754 1166.9968052938752 483.1540915159127L1166.9968052938752 483.1540915159127Q1169.2275848111537 482.45697291676316 1174.1671680279846 478.7722031784015Q1179.1067512448153 475.0874334400398 1183.169956794144 471.1038985877569Q1187.2331623434725 467.120363735474 1187.2331623434725 466.10456234814177Q1187.2331623434725 465.0887609608096 1185.998266539265 465.0887609608096Q1184.7832884093186 465.0887609608096 1182.6720149376085 465.92530327978903Q1180.58065914016 466.7618455987685 1177.0751484701511 469.3909786012752Q1173.5696378001421 472.0201116037819 1169.5064322508135 476.14307017589476L1169.5064322508135 476.14307017589476Q1159.7069365141974 485.94256591251076 1147.6567435860416 503.94814344482955L1147.6567435860416 503.94814344482955Q1144.8682691894437 508.01134899415814 1139.74942690426 515.7792419561099L1139.74942690426 515.7792419561099Q1129.3125655912788 531.5341222968889 1124.8310888824606 537.3500831812219L1124.8310888824606 537.3500831812219Q1160.7625732500524 546.7910607811324 1176.158935454126 546.7910607811324L1176.158935454126 546.7910607811324Q1183.3093805139738 546.7910607811324 1186.1775256076176 544.9785524233437L1186.1775256076176 544.9785524233437Q1187.2331623434725 544.3411868469784 1187.5717628059165 544.3411868469784Q1187.930280942622 544.3411868469784 1187.930280942622 544.9187994005595Q1187.930280942622 545.476494279879 1187.2929153662567 546.5918840385182Q1186.6555497898914 547.7072737971575 1184.185758181476 551.3522081869963Q1181.6960488987993 554.9971425768351 1180.5009884431142 555.6942611759847L1180.5009884431142 555.6942611759847Q1177.0751484701511 557.725863950649 1168.8491490001868 557.725863950649Q1160.6231495302225 557.725863950649 1153.154021682192 556.5308034949642Q1145.704811508423 555.3357430392792 1141.1436641025591 554.1805179321173Q1136.6024343709566 553.0252928249552 1127.6793163018428 550.4359951709712Q1118.7362805584676 547.8466975169874 1115.9478061618697 547.0898258950535ZM1090.3934300844746 542.8075259288494L1090.3934300844746 542.8075259288494Q1081.2113822499625 542.8075259288494 1081.2113822499625 544.9785524233437L1081.2113822499625 544.9785524233437Q1081.2113822499625 545.815094742323 1082.7848785166143 546.4524603186883Q1084.358374783266 547.0898258950535 1086.5294012777601 547.0898258950535L1086.5294012777601 547.0898258950535Q1093.3213282009026 547.0898258950535 1099.6352309417712 543.5046445279991L1099.6352309417712 543.5046445279991Q1094.2375412169276 542.8075259288494 1090.3934300844746 542.8075259288494ZM1219.30061790435 547.0898258950535L1219.30061790435 547.0898258950535Q1206.274458937385 558.7018299894582 1188.209128382282 558.7018299894582L1188.209128382282 558.7018299894582Q1177.2743252127652 558.7018299894582 1172.5936717613326 554.0809295608101L1172.5936717613326 554.0809295608101Q1169.9247034103032 551.5713026038718 1169.9247034103032 545.1976468402192L1169.9247034103032 545.1976468402192Q1169.9247034103032 535.3782334293419 1184.8430414321028 532.5100883356981L1184.8430414321028 532.5100883356981Q1189.5436125577967 531.6137929939345 1196.1164450640636 531.6137929939345Q1202.7091952445917 531.6137929939345 1214.1220225963823 534.0636669280884L1214.1220225963823 534.0636669280884Q1220.1969132461136 527.271740004946 1228.6420071329535 514.0663219696282Q1237.0871010197932 500.8609039343103 1241.9868488881013 493.7303765487239Q1246.8865967564093 486.579931488876 1253.120828800232 479.13072131510694Q1259.3550608440546 471.66159346707644 1266.146987767197 465.64645584012925L1266.146987767197 465.64645584012925Q1279.930018356096 453.3174154723136 1293.4541191795965 453.3174154723136L1293.4541191795965 453.3174154723136Q1299.4692568065439 453.3174154723136 1302.1382251575733 456.36481963431004Q1304.7872758343415 459.4122237963065 1304.7872758343415 463.5750177169421Q1304.7872758343415 467.7378116375778 1300.9830000504112 473.27492508225106Q1297.1588065922197 478.8120385269243 1292.1594703526048 483.07442081886705Q1287.1402164387282 487.35672078507116 1282.280303918943 490.324454250022Q1277.4203913991578 493.31210538923415 1274.6119993282985 493.31210538923415Q1271.803607257439 493.31210538923415 1269.791922157036 490.9219844778644Q1267.7603193823718 488.5318635664946 1267.7603193823718 486.340919397739Q1267.7603193823718 484.130057554722 1268.3379319359528 483.2536798872198Q1268.9354621637951 482.37730221971754 1269.5728277401604 482.37730221971754Q1270.2101933165259 482.37730221971754 1270.3496170363558 483.1540915159127L1270.3496170363558 483.1540915159127Q1272.5803965536343 482.45697291676316 1277.519979770465 478.7722031784015Q1282.4595629872956 475.0874334400398 1286.5227685366244 471.1038985877569Q1290.5859740859528 467.120363735474 1290.5859740859528 466.10456234814177Q1290.5859740859528 465.0887609608096 1289.3510782817452 465.0887609608096Q1288.136100151799 465.0887609608096 1286.024826680089 465.92530327978903Q1283.9334708826404 466.7618455987685 1280.4279602126317 469.3909786012752Q1276.9224495426224 472.0201116037819 1272.859243993294 476.14307017589476L1272.859243993294 476.14307017589476Q1263.0597482566777 485.94256591251076 1251.009555328522 503.94814344482955L1251.009555328522 503.94814344482955Q1248.221080931924 508.01134899415814 1243.1022386467405 515.7792419561099L1243.1022386467405 515.7792419561099Q1232.6653773337594 531.5341222968889 1228.183900624941 537.3500831812219L1228.183900624941 537.3500831812219Q1264.1153849925329 546.7910607811324 1279.5117471966064 546.7910607811324L1279.5117471966064 546.7910607811324Q1286.662192256454 546.7910607811324 1289.5303373500979 544.9785524233437L1289.5303373500979 544.9785524233437Q1290.5859740859528 544.3411868469784 1290.924574548397 544.3411868469784Q1291.2830926851025 544.3411868469784 1291.2830926851025 544.9187994005595Q1291.2830926851025 545.476494279879 1290.6457271087372 546.5918840385182Q1290.0282792066332 547.7072737971575 1287.5385699239564 551.3522081869963Q1285.0488606412796 554.9971425768351 1283.8538001855948 555.6942611759847L1283.8538001855948 555.6942611759847Q1280.4279602126317 557.725863950649 1272.2019607426673 557.725863950649Q1263.975961272703 557.725863950649 1256.5068334246725 556.5308034949642Q1249.0576232509034 555.3357430392792 1244.4964758450394 554.1805179321173Q1239.955246113437 553.0252928249552 1231.0321280443231 550.4359951709712Q1222.089092300948 547.8466975169874 1219.30061790435 547.0898258950535ZM1193.7462418269552 542.8075259288494L1193.7462418269552 542.8075259288494Q1184.5641939924428 542.8075259288494 1184.5641939924428 544.9785524233437L1184.5641939924428 544.9785524233437Q1184.5641939924428 545.815094742323 1186.1376902590946 546.4524603186883Q1187.7111865257466 547.0898258950535 1189.8822130202407 547.0898258950535L1189.8822130202407 547.0898258950535Q1196.6741399433831 547.0898258950535 1202.9880426842515 543.5046445279991L1202.9880426842515 543.5046445279991Q1197.5903529594082 542.8075259288494 1193.7462418269552 542.8075259288494ZM1324.1870905649594 487.35672078507116L1324.1870905649594 487.35672078507116Q1324.1870905649594 491.8979505166737 1340.0813946255682 491.8979505166737L1340.0813946255682 491.8979505166737Q1344.0051764550667 491.8979505166737 1345.8973555099014 491.0614081976943L1345.8973555099014 491.0614081976943Q1350.876774075255 488.69120496058594 1358.1068898321485 488.69120496058594Q1365.3569232633033 488.69120496058594 1365.3569232633033 492.39589237320905L1365.3569232633033 492.39589237320905Q1365.3569232633033 493.8698002685538 1364.141945133357 496.69811001367464Q1362.9070493291495 499.5264197587955 1362.309519101307 500.16378533516075Q1361.7319065477259 500.80115091152607 1357.8081247182272 501.8767053216424Q1353.8843428887285 502.97217740602025 1352.7291177815664 503.0717657773273Q1351.5738926744043 503.1713541486344 1351.175539189176 503.25102484568004Q1350.7971033782092 503.3107778684643 1350.2792438474125 503.3904485655099Q1349.7414666423542 503.4502015882942 1347.9289582845656 503.7688843764768Q1346.1164499267768 504.08756716465945 1345.259989933536 503.729049027954L1345.259989933536 503.729049027954Q1322.0957347675107 515.1418763797446 1313.411628789534 528.805400923075L1313.411628789534 528.805400923075Q1309.4878469600353 534.9599622698521 1309.4878469600353 539.3816859558862L1309.4878469600353 539.3816859558862Q1309.4878469600353 546.3130365988584 1319.0881659540373 546.3130365988584L1319.0881659540373 546.3130365988584Q1326.577211476329 546.3130365988584 1338.1294625479495 540.4373226917412Q1349.68171361957 534.5416911103623 1358.6048316886838 526.1762679205683Q1367.5279497577974 517.8108447307741 1367.5279497577974 511.656283383997L1367.5279497577974 511.656283383997Q1367.5279497577974 509.68443363211696 1370.475765548487 509.68443363211696L1370.475765548487 509.68443363211696Q1377.2676924716293 509.68443363211696 1377.2676924716293 517.7311740337284L1377.2676924716293 517.7311740337284Q1377.2676924716293 521.5155321433972 1373.9812762184959 526.7339627998879Q1370.6948599653626 531.9523934563786 1364.7992283839837 537.310247832699Q1358.9235144768663 542.6681022090195 1351.7133163942344 547.2890026376677Q1344.503118311602 551.909903066316 1335.699506288057 554.8577188570052Q1326.915811938773 557.7856169734332 1320.8210036147802 557.7856169734332Q1314.7461129650487 557.7856169734332 1310.9816725296414 556.6303918662711Q1307.2371497684953 555.4751667591092 1303.9507335153621 553.164716544785L1303.9507335153621 553.164716544785Q1296.8202061297757 548.2052156536929 1296.8202061297757 538.126872477417L1296.8202061297757 538.126872477417Q1296.8202061297757 532.649512055528 1299.7481042462036 527.0128102395477Q1302.695920036893 521.3761084235673 1307.4562441853711 516.7552079949191L1307.4562441853711 516.7552079949191Q1316.200103186132 508.07110201694235 1326.2186933396235 502.33481182965494L1326.2186933396235 502.33481182965494Q1311.7982971743595 499.04839557652156 1311.7982971743595 487.4961445049011L1311.7982971743595 487.4961445049011Q1311.7982971743595 474.46998553793594 1331.8155598070812 463.6746060882492L1331.8155598070812 463.6746060882492Q1342.9495397192118 457.73913915834765 1355.975698686177 455.1498415043638L1355.975698686177 455.1498415043638Q1362.1501777072156 453.8751103516332 1366.2731362793284 453.8751103516332L1366.2731362793284 453.8751103516332Q1374.6783948176455 453.8751103516332 1378.9407771095882 455.209594527148L1378.9407771095882 455.209594527148Q1381.530074763572 456.46440800561714 1383.1434063787467 458.7549405456798Q1384.7567379939212 461.0255554114811 1384.7567379939212 462.6588047009171Q1384.7567379939212 464.3119716646145 1384.3384668344313 465.64645584012925Q1383.9201956749419 466.980940015644 1382.9442296361324 467.7378116375778L1382.9442296361324 467.7378116375778Q1381.530074763572 468.79344837343274 1379.7972371028288 469.35114325275237Q1378.0444817678244 469.908838132072 1377.7656343281649 470.0482618519019L1377.7656343281649 470.0482618519019Q1372.2882739062757 472.358712066226 1368.3844097510384 472.358712066226L1368.3844097510384 472.358712066226Q1361.3733884110204 472.358712066226 1360.7360228346554 470.54620370843725L1360.7360228346554 470.54620370843725Q1360.875446554485 468.73369535064853 1362.2896014270455 466.34357443927877L1362.2896014270455 466.34357443927877Q1355.6370982237331 466.6224218789386 1348.486653163885 469.03246046456974Q1341.3561257782987 471.46241672446234 1336.137695121808 474.70899762907294Q1330.9192644653176 477.9754962079449 1327.5531775151385 481.46108920369244Q1324.1870905649594 484.96659987370145 1324.1870905649594 487.35672078507116ZM1435.2480422466072 455.76728940646757L1438.5344584997408 456.32498428578725L1443.653300784924 455.209594527148Q1445.6052328625428 455.209594527148 1446.8002933182277 456.0461368461274Q1447.9953537739127 456.8826791651068 1447.9953537739127 457.6196331127791Q1447.9953537739127 458.35658706045155 1447.636835637207 459.77074193301195Q1447.298235174763 461.164979131311 1441.960298472704 487.0778733454114Q1436.6422794449063 512.9708498852503 1434.1924055107522 525.7181614125557L1434.1924055107522 525.7181614125557Q1446.1031747190784 509.54500991228707 1461.997478779687 485.8828128897265Q1477.891782840296 462.2206158671659 1480.5607511913256 454.43280523095285L1480.5607511913256 454.43280523095285Q1481.397293510305 451.9829312967988 1482.7317776858197 450.6683647955455Q1484.0463441870731 449.3338806200307 1485.101980922928 449.0749508546323Q1486.157617658783 448.83593876349534 1488.328644153277 448.83593876349534Q1490.4996706477714 448.83593876349534 1493.467404112722 449.7919871280432Q1496.4550552519343 450.72811781832974 1496.4550552519343 452.8991443128239L1496.4550552519343 452.8991443128239Q1496.4550552519343 457.0221028849367 1484.1857679069028 476.7007650552144Q1471.9363982361328 496.379427225492 1456.2213532438768 518.5079633299237Q1440.5063082516206 540.6364994343553 1429.9300232188095 553.5232346814905L1429.9300232188095 553.5232346814905Q1428.037844163975 555.8336848958146 1425.3290404644229 555.8336848958146Q1422.6401544391317 555.8336848958146 1419.6724209741808 554.8975542055282Q1416.6847698349688 553.9415058409802 1416.6847698349688 551.5713026038718L1416.6847698349688 551.5713026038718Q1416.6847698349688 543.8631626647044 1430.2088706584693 477.5572250484552L1430.2088706584693 477.5572250484552Q1418.6566195868488 492.535316093039 1402.1249499498747 519.2847526261188L1402.1249499498747 519.2847526261188Q1384.896161713751 546.9504021752236 1382.6653821964726 553.5829877042747L1382.6653821964726 553.5829877042747Q1381.390651043742 557.5864402308191 1379.7972371028288 558.2238058071844L1379.7972371028288 558.2238058071844Q1378.6619296699284 558.7018299894582 1377.4071161914592 558.7018299894582L1377.4071161914592 558.7018299894582L1371.870002746786 559.3391955658235Q1370.2566711316113 559.3391955658235 1368.902269281835 558.4229825497985Q1367.5279497577974 557.5067695337734 1367.5279497577974 556.5308034949642L1367.5279497577974 556.5308034949642Q1367.5279497577974 553.7423290983661 1375.2759250454878 539.799957115376Q1383.0039826589166 525.8575851323856 1393.3412556005908 509.50517456376423Q1403.6586108680037 493.17268166940426 1414.9320144999642 477.6966487682851Q1426.205418131925 462.2206158671659 1432.3798971529634 456.8826791651068L1432.3798971529634 456.8826791651068Q1433.6347106314327 455.76728940646757 1435.2480422466072 455.76728940646757L1435.2480422466072 455.76728940646757ZM1543.9188730168853 515.0024526599148L1543.9188730168853 515.0024526599148Q1545.6118753291055 515.0024526599148 1545.6118753291055 517.7112563594671Q1545.6118753291055 520.400142384758 1544.4168148734207 526.9928925652862L1544.4168148734207 526.9928925652862Q1543.5006018573956 531.394698577059 1534.3384716971448 539.5808626985004L1534.3384716971448 539.5808626985004Q1523.2642448077984 549.4002761093777 1510.0389090982192 553.5829877042747L1510.0389090982192 553.5829877042747Q1502.0519217193919 556.1125323354745 1494.4433701515316 556.1125323354745Q1486.8547362579325 556.1125323354745 1480.5806688655869 549.699041223299Q1474.3265191475027 543.3054677853847 1474.3265191475027 534.5018557618396Q1474.3265191475027 525.7181614125557 1477.8519474917732 516.2971014869066Q1481.397293510305 506.8959592355189 1487.3725957887293 498.3114416288492Q1493.367815741415 489.7269240221795 1501.5141445143338 481.8196073403979Q1509.6803909615135 473.9122906586163 1518.5039206593203 468.0963297742833Q1527.3274503571272 462.2803688899502 1536.9875223739132 458.8545289169869Q1546.6475943906992 455.4286889440236 1555.331700368676 455.4286889440236L1555.331700368676 455.4286889440236Q1562.2032979888638 455.4286889440236 1567.0233751601263 460.3881898351158L1567.0233751601263 460.3881898351158Q1569.5529197913258 463.0571581861454 1569.5529197913258 467.08052838695113Q1569.5529197913258 471.1038985877569 1565.6291379618274 477.2385422602726Q1561.7053561323285 483.35326825852684 1556.347501756008 488.39243984666473Q1550.9896473796875 493.45152910906404 1545.293192540923 496.93712210481164Q1539.576820027897 500.4426327748206 1536.1509800549336 500.4426327748206Q1532.7251400819703 500.4426327748206 1530.2752661478164 498.3114416288492Q1527.8253922136623 496.18025048287785 1527.8253922136623 494.4872481706576Q1527.8253922136623 492.8141635326988 1528.5623461613347 490.7825607580345Q1529.2793824347457 488.7509579833702 1530.4146898676463 488.7509579833702L1530.4146898676463 488.7509579833702Q1530.1358424279865 489.10947612007567 1530.1358424279865 489.4480765825197L1530.1358424279865 489.4480765825197Q1530.1358424279865 490.28461890149913 1532.5458810136176 490.28461890149913Q1534.9559195992488 490.28461890149913 1540.6324567637519 486.0222366095564Q1546.308993928255 481.7399366433523 1550.8900590083804 476.4219176155546Q1555.4711240885058 471.1038985877569 1555.4711240885058 468.4349302367273L1555.4711240885058 468.4349302367273Q1555.4711240885058 466.6224218789386 1553.0212501543517 466.6224218789386L1553.0212501543517 466.6224218789386Q1546.448417648085 466.6224218789386 1534.8563312279416 472.7570655514543Q1523.2642448077984 478.8717915497086 1512.6879597749873 488.5318635664946Q1502.111674742176 498.21185325754215 1494.3039464317014 511.47702431564426Q1486.496218121227 524.7421953737464 1486.496218121227 535.3184804065576L1486.496218121227 535.3184804065576Q1486.496218121227 539.7202864183303 1488.846503684074 542.3892547693597Q1491.1967892469208 545.0582231203894 1496.056701766706 545.0582231203894Q1500.9365319607525 545.0582231203894 1507.589035164065 542.2498310495298Q1514.2415383673776 539.4414389786704 1520.216840645802 535.3782334293419Q1526.2120605984876 531.3349455542746 1531.5300796262854 527.0526455880705Q1536.8480986540833 522.7902632961277 1540.0349265359093 519.5636000657787Q1543.2217544177358 516.3369368354295 1543.3014251147815 515.6796535848027Q1543.361178137566 515.0024526599148 1543.9188730168853 515.0024526599148ZM1584.7501052527853 487.35672078507116L1584.7501052527853 487.35672078507116Q1584.7501052527853 491.8979505166737 1600.6444093133941 491.8979505166737L1600.6444093133941 491.8979505166737Q1604.5681911428928 491.8979505166737 1606.4603701977273 491.0614081976943L1606.4603701977273 491.0614081976943Q1611.4198710888197 488.69120496058594 1618.6699045199744 488.69120496058594Q1625.9199379511292 488.69120496058594 1625.9199379511292 492.39589237320905L1625.9199379511292 492.39589237320905Q1625.9199379511292 493.8698002685538 1624.6850421469214 496.69811001367464Q1623.4700640169751 499.5264197587955 1622.872533789133 500.16378533516075Q1622.2750035612905 500.80115091152607 1618.3512217317918 501.8767053216424Q1614.4274399022931 502.97217740602025 1613.272214795131 503.0717657773273Q1612.116989687969 503.1713541486344 1611.738553877002 503.25102484568004Q1611.3601180660353 503.3107778684643 1610.822340860977 503.3904485655099Q1610.3044813301801 503.4502015882942 1608.4919729723913 503.7688843764768Q1606.6595469403412 504.08756716465945 1605.8230046213619 503.729049027954L1605.8230046213619 503.729049027954Q1582.6388317810754 515.1418763797446 1573.9547258030987 528.805400923075L1573.9547258030987 528.805400923075Q1570.0508616478612 534.9599622698521 1570.0508616478612 539.3816859558862L1570.0508616478612 539.3816859558862Q1570.0508616478612 546.3130365988584 1579.6312629676017 546.3130365988584L1579.6312629676017 546.3130365988584Q1587.1203084898937 546.3130365988584 1598.6725595615142 540.4373226917412Q1610.244728307396 534.5416911103623 1619.1678463765097 526.1762679205683Q1628.0909644456235 517.8108447307741 1628.0909644456235 511.656283383997L1628.0909644456235 511.656283383997Q1628.0909644456235 509.68443363211696 1631.0387802363127 509.68443363211696L1631.0387802363127 509.68443363211696Q1637.8307071594552 509.68443363211696 1637.8307071594552 517.7311740337284L1637.8307071594552 517.7311740337284Q1637.8307071594552 521.5155321433972 1634.5243732320603 526.7339627998879Q1631.237956978927 531.9523934563786 1625.3622430718099 537.310247832699Q1619.4865291646922 542.6681022090195 1612.2564134077988 547.2890026376677Q1605.0462153251667 551.909903066316 1596.262520975883 554.8577188570052Q1587.4788266265991 557.7856169734332 1581.3840183026061 557.7856169734332Q1575.2892099786134 557.7856169734332 1571.5446872174673 556.6303918662711Q1567.8001644563215 555.4751667591092 1564.513748203188 553.164716544785L1564.513748203188 553.164716544785Q1557.3633031433403 548.2052156536929 1557.3633031433403 538.126872477417L1557.3633031433403 538.126872477417Q1557.3633031433403 532.649512055528 1560.3111189340295 527.0128102395477Q1563.258934724719 521.3761084235673 1568.019258873197 516.7552079949191L1568.019258873197 516.7552079949191Q1576.763117873958 508.07110201694235 1586.7817080274497 502.33481182965494L1586.7817080274497 502.33481182965494Q1572.3613118621854 499.04839557652156 1572.3613118621854 487.4961445049011L1572.3613118621854 487.4961445049011Q1572.3613118621854 474.46998553793594 1592.378574494907 463.6746060882492L1592.378574494907 463.6746060882492Q1603.512554407038 457.73913915834765 1616.538713374003 455.1498415043638L1616.538713374003 455.1498415043638Q1622.6932747207802 453.8751103516332 1626.8361509671543 453.8751103516332L1626.8361509671543 453.8751103516332Q1635.2414095054714 453.8751103516332 1639.503791797414 455.209594527148L1639.503791797414 455.209594527148Q1642.0930894513979 456.46440800561714 1643.7064210665724 458.7549405456798Q1645.319752681747 461.0255554114811 1645.319752681747 462.6588047009171Q1645.319752681747 464.3119716646145 1644.9014815222574 465.64645584012925Q1644.4832103627677 466.980940015644 1643.487326649697 467.7378116375778L1643.487326649697 467.7378116375778Q1642.0930894513979 468.79344837343274 1640.3403341163935 469.35114325275237Q1638.587578781389 469.908838132072 1638.3087313417293 470.0482618519019L1638.3087313417293 470.0482618519019Q1632.8512885941016 472.358712066226 1628.9275067646029 472.358712066226L1628.9275067646029 472.358712066226Q1621.9364030988465 472.358712066226 1621.299037522481 470.54620370843725L1621.299037522481 470.54620370843725Q1621.438461242311 468.73369535064853 1622.83269844061 466.34357443927877L1622.83269844061 466.34357443927877Q1616.1801952372978 466.6224218789386 1609.049667851711 469.03246046456974Q1601.8992227918632 471.46241672446234 1596.6807921353727 474.70899762907294Q1591.4623614788818 477.9754962079449 1588.1161922029644 481.46108920369244Q1584.7501052527853 484.96659987370145 1584.7501052527853 487.35672078507116ZM1758.1932127211837 457.59971543851776L1758.1932127211837 457.59971543851776Q1760.3642392156778 452.75972059299403 1761.280452231703 452.75972059299403L1761.280452231703 452.75972059299403L1761.619052694147 452.75972059299403Q1762.674689430002 452.75972059299403 1765.901352660351 454.9905001102724Q1769.1080982164387 457.2411973018123 1769.1080982164387 459.1931293794309L1769.1080982164387 459.1931293794309Q1769.1080982164387 461.94176842750613 1751.1821913811657 501.4982695106756Q1733.2562845458926 541.054770593845 1730.6470692176474 545.854930090846Q1728.0179362151405 550.6550895878468 1727.041970176331 552.2684212030215Q1726.0460864632605 553.881752818196 1724.3730018253016 555.8336848958146L1724.3730018253016 555.8336848958146Q1721.3654330118281 559.5383723084377 1716.8839563030099 559.5383723084377L1716.8839563030099 559.5383723084377Q1715.0515302709598 559.5383723084377 1713.6572930726607 559.9964788164502Q1712.2630558743617 560.4545853244629 1711.9842084347017 560.4545853244629L1711.9842084347017 560.4545853244629Q1709.733511243162 560.4545853244629 1709.733511243162 559.3989485886078L1709.733511243162 559.3989485886078Q1709.733511243162 559.1997718459936 1710.3310414710045 557.6860286021262Q1710.9285716988468 556.1922030325201 1726.3249339029205 523.6865586378915L1726.3249339029205 523.6865586378915Q1709.8729349629918 523.0691107357875 1697.404470875346 522.7105925990821L1697.404470875346 522.7105925990821Q1685.4339486442361 537.7683543407115 1675.7141236046657 554.22035328064L1675.7141236046657 554.22035328064Q1674.519063148981 556.5308034949642 1673.463426413126 557.486851859512Q1672.4077896772708 558.4229825497985 1670.5952813194824 558.4229825497985Q1668.7827729616936 558.4229825497985 1666.6714994899837 556.5706388434869Q1664.580143692535 554.7182951371753 1664.580143692535 552.2684212030215L1664.580143692535 552.2684212030215Q1664.580143692535 545.2573998630035 1682.645474247638 522.2923214395923L1682.645474247638 522.2923214395923Q1674.1605450122754 522.2923214395923 1671.8899301464742 522.7105925990821Q1669.619315280673 523.1288637585718 1668.9819497043077 523.1288637585718L1668.9819497043077 523.1288637585718Q1667.0897706494734 523.1288637585718 1667.0897706494734 519.9420358767454Q1667.0897706494734 516.7552079949191 1670.8342934106192 514.345169409288Q1674.5788161717653 511.93513082365683 1680.8927189126337 511.93513082365683L1680.8927189126337 511.93513082365683Q1681.3707430949075 511.93513082365683 1682.645474247638 511.85546012661115L1682.645474247638 511.85546012661115Q1686.9875272366264 511.656283383997 1691.528756968229 511.5168596641671L1691.528756968229 511.5168596641671Q1706.805613126734 493.59095282889393 1723.4567888092768 478.2543436476047Q1740.1278821660806 462.9177344663155 1752.3174988140663 456.74325544527693L1752.3174988140663 456.74325544527693Q1754.269430891685 455.76728940646757 1755.4246559988471 455.8071247549904Q1756.5798811060092 455.84696010351325 1758.1932127211837 457.59971543851776ZM1753.2934648528756 467.45896419791796L1753.2934648528756 467.45896419791796Q1727.7390887754807 486.8587789285358 1706.5865187098584 511.5168596641671L1706.5865187098584 511.5168596641671Q1718.9753121004585 511.79570710382694 1731.6628706049794 512.5525787257607L1731.6628706049794 512.5525787257607Q1744.3902644580235 485.7433891698966 1753.2934648528756 467.45896419791796ZM1825.694210793118 515.0024526599148L1825.694210793118 515.0024526599148Q1827.3672954310766 515.0024526599148 1827.3672954310766 517.7112563594671Q1827.3672954310766 520.400142384758 1826.1921526496533 526.9928925652862L1826.1921526496533 526.9928925652862Q1825.275939633628 531.394698577059 1816.093891799116 539.5808626985004L1816.093891799116 539.5808626985004Q1805.0395825840308 549.4002761093777 1791.8142468744516 553.5829877042747L1791.8142468744516 553.5829877042747Q1783.8272594956245 556.1125323354745 1776.218707927764 556.1125323354745Q1768.6300740341649 556.1125323354745 1762.3560066418192 549.699041223299Q1756.101856923735 543.3054677853847 1756.101856923735 534.5018557618396Q1756.101856923735 525.7181614125557 1759.6272852680056 516.2971014869066Q1763.1726312865374 506.8959592355189 1769.1479335649617 498.3114416288492Q1775.1431535176473 489.7269240221795 1783.2894822905662 481.8196073403979Q1791.4557287377463 473.9122906586163 1800.2792584355527 468.0963297742833Q1809.1027881333596 462.2803688899502 1818.7628601501458 458.8545289169869Q1828.4229321669316 455.4286889440236 1837.1070381449083 455.4286889440236L1837.1070381449083 455.4286889440236Q1843.9786357650967 455.4286889440236 1848.798712936359 460.3881898351158L1848.798712936359 460.3881898351158Q1851.3282575675582 463.0571581861454 1851.3282575675582 467.08052838695113Q1851.3282575675582 471.1038985877569 1847.40447573806 477.2385422602726Q1843.4806939085613 483.35326825852684 1838.1228395322403 488.39243984666473Q1832.7649851559202 493.45152910906404 1827.0685303171556 496.93712210481164Q1821.3521578041293 500.4426327748206 1817.926317831166 500.4426327748206Q1814.5004778582027 500.4426327748206 1812.0506039240488 498.3114416288492Q1809.5808123156337 496.18025048287785 1809.5808123156337 494.4872481706576Q1809.5808123156337 492.8141635326988 1810.3177662633059 490.7825607580345Q1811.054720210978 488.7509579833702 1812.190027643879 488.7509579833702L1812.190027643879 488.7509579833702Q1811.9111802042191 489.10947612007567 1811.9111802042191 489.4480765825197L1811.9111802042191 489.4480765825197Q1811.9111802042191 490.28461890149913 1814.32121878985 490.28461890149913Q1816.7312573754814 490.28461890149913 1822.4077945399843 486.0222366095564Q1828.0843317044876 481.7399366433523 1832.665396784613 476.4219176155546Q1837.2464618647384 471.1038985877569 1837.2464618647384 468.4349302367273L1837.2464618647384 468.4349302367273Q1837.2464618647384 466.6224218789386 1834.7965879305846 466.6224218789386L1834.7965879305846 466.6224218789386Q1828.2237554243177 466.6224218789386 1816.6316690041742 472.7570655514543Q1805.0395825840308 478.8717915497086 1794.4632975512197 488.5318635664946Q1783.8870125184087 498.21185325754215 1776.0792842079338 511.47702431564426Q1768.2715558974596 524.7421953737464 1768.2715558974596 535.3184804065576L1768.2715558974596 535.3184804065576Q1768.2715558974596 539.7202864183303 1770.621841460306 542.3892547693597Q1772.9721270231532 545.0582231203894 1777.8320395429384 545.0582231203894Q1782.6919520627237 545.0582231203894 1789.344455266036 542.2498310495298Q1795.9969584693488 539.4414389786704 1801.9921784220344 535.3782334293419Q1807.9873983747204 531.3349455542746 1813.305417402518 527.0526455880705Q1818.6234364303157 522.7902632961277 1821.8102643121422 519.5636000657787Q1824.9970921939682 516.3369368354295 1825.0568452167524 515.6796535848027Q1825.1365159137983 515.0024526599148 1825.694210793118 515.0024526599148ZM1923.9480979246762 457.59971543851776L1923.9480979246762 457.59971543851776Q1926.099206744909 452.75972059299403 1927.0154197609338 452.75972059299403L1927.0154197609338 452.75972059299403L1927.3739378976395 452.75972059299403Q1928.4295746334944 452.75972059299403 1931.6363201895822 454.9905001102724Q1934.8629834199312 457.2411973018123 1934.8629834199312 459.1931293794309L1934.8629834199312 459.1931293794309Q1934.8629834199312 461.94176842750613 1916.9370765846581 501.4982695106756Q1899.011169749385 541.054770593845 1896.3820367468782 545.854930090846Q1893.7529037443717 550.6550895878468 1892.7769377055622 552.2684212030215Q1891.8009716667532 553.881752818196 1890.1079693545328 555.8336848958146L1890.1079693545328 555.8336848958146Q1887.100400541059 559.5383723084377 1882.6189238322406 559.5383723084377L1882.6189238322406 559.5383723084377Q1880.8064154744523 559.5383723084377 1879.4121782761529 559.9964788164502Q1877.9980234035922 560.4545853244629 1877.719175963933 560.4545853244629L1877.719175963933 560.4545853244629Q1875.4883964466542 560.4545853244629 1875.4883964466542 559.3989485886078L1875.4883964466542 559.3989485886078Q1875.4883964466542 559.1997718459936 1876.0859266744967 557.6860286021262Q1876.663539228078 556.1922030325201 1892.079819106413 523.6865586378915L1892.079819106413 523.6865586378915Q1875.6278201664843 523.0691107357875 1863.159356078839 522.7105925990821L1863.159356078839 522.7105925990821Q1851.1888338477286 537.7683543407115 1841.449091133897 554.22035328064L1841.449091133897 554.22035328064Q1840.2540306782118 556.5308034949642 1839.2183116166186 557.486851859512Q1838.1626748807632 558.4229825497985 1836.3302488487132 558.4229825497985Q1834.5177404909248 558.4229825497985 1832.4263846934757 556.5706388434869Q1830.3151112217663 554.7182951371753 1830.3151112217663 552.2684212030215L1830.3151112217663 552.2684212030215Q1830.3151112217663 545.2573998630035 1848.380441776869 522.2923214395923L1848.380441776869 522.2923214395923Q1839.9154302157679 522.2923214395923 1837.6248976757054 522.7105925990821Q1835.3542828099037 523.1288637585718 1834.7368349078004 523.1288637585718L1834.7368349078004 523.1288637585718Q1832.8446558529656 523.1288637585718 1832.8446558529656 519.9420358767454Q1832.8446558529656 516.7552079949191 1836.5891786141117 514.345169409288Q1840.3337013752573 511.93513082365683 1846.6276864418644 511.93513082365683L1846.6276864418644 511.93513082365683Q1847.1256282983998 511.93513082365683 1848.380441776869 511.85546012661115L1848.380441776869 511.85546012661115Q1852.7224947658576 511.656283383997 1857.2836421717213 511.5168596641671L1857.2836421717213 511.5168596641671Q1872.540580655965 493.59095282889393 1889.2116740127692 478.2543436476047Q1905.8628496953118 462.9177344663155 1918.0524663432973 456.74325544527693L1918.0524663432973 456.74325544527693Q1920.0243160951775 455.76728940646757 1921.1795412023396 455.8071247549904Q1922.3347663095017 455.84696010351325 1923.9480979246762 457.59971543851776ZM1919.0284323821068 467.45896419791796L1919.0284323821068 467.45896419791796Q1893.474056304712 486.8587789285358 1872.3214862390894 511.5168596641671L1872.3214862390894 511.5168596641671Q1884.730197303951 511.79570710382694 1897.3978381342101 512.5525787257607L1897.3978381342101 512.5525787257607Q1910.1451496615157 485.7433891698966 1919.0284323821068 467.45896419791796ZM1944.025113580182 487.21729706524127L1944.025113580182 487.21729706524127L1942.571123359099 486.9982026483657L1942.2922759194391 486.9982026483657Q1940.5395205844345 486.9982026483657 1938.6871768781227 485.6039654500667Q1936.8149154975501 484.2097282517677 1936.8149154975501 480.624546884713Q1936.8149154975501 477.05928319191986 1940.6988619785259 472.4981357860559Q1944.6027261337629 467.9569060544533 1951.2552293370757 464.13271259626174Q1957.907732540388 460.3284368123315 1967.806816648311 457.87856287817755Q1977.7258184304953 455.4286889440236 1988.700456948535 455.4286889440236L1988.700456948535 455.4286889440236Q2011.1875111896718 455.4286889440236 2023.8352343456702 464.27213631609163Q2036.4630398274073 473.13550136242117 2036.4630398274073 487.27705008802553L2036.4630398274073 487.27705008802553Q2036.4630398274073 496.1005797858322 2032.5392579979086 504.92410948363886Q2028.61547616841 513.7476391814455 2022.042643662143 521.216767029476Q2015.449893481615 528.6659772032451 2006.5666107610239 535.1392213382048Q1997.6634103661715 541.6124654731645 1987.9435853266011 546.1736128790285L1987.9435853266011 546.1736128790285Q1966.9304389808087 555.8336848958146 1947.7497186670664 555.8336848958146L1947.7497186670664 555.8336848958146Q1938.288823392895 555.8336848958146 1935.8389494587407 554.3000239776857L1935.8389494587407 554.3000239776857Q1934.9227364427154 553.8020821211503 1934.0662764494748 552.7862807338181Q1933.1898987819725 551.7704793464861 1932.6919569254371 551.4318788840419L1932.6919569254371 551.4318788840419Q1931.3574727499224 550.5754188908011 1931.3574727499224 547.8068621684645Q1931.3574727499224 545.0582231203894 1931.915167629242 542.8075259288494L1931.915167629242 542.8075259288494Q1934.0264411009518 535.3184804065576 1950.7971228290633 510.2819638599594Q1967.5678045571742 485.24544731336124 1978.841208189135 469.908838132072L1978.841208189135 469.908838132072Q1979.5980798110684 468.8731190704784 1986.7485248709165 468.37517721394306L1986.7485248709165 468.37517721394306Q1989.6963406616057 468.37517721394306 1990.8117304202449 468.79344837343274Q1991.927120178884 469.2117195329225 1991.927120178884 470.30719161730025Q1991.927120178884 471.38274602741666 1988.2821857890451 476.4617529640774Q1984.657169073468 481.5407599007381 1964.8988362061448 511.9550484979182Q1945.1604210130824 542.3892547693597 1945.1604210130824 543.2257970883392Q1945.1604210130824 544.0623394073186 1951.3548177083828 544.0623394073186Q1957.5492144036828 544.0623394073186 1966.611756192626 541.4531240790732Q1975.6942156558314 538.8239910765665 1983.6612853603972 534.5416911103623Q1991.6482727392242 530.2793088184196 1998.938141518902 524.6426070024393Q2006.2080926243186 519.005905186459 2011.4066056065474 513.1102736050802L2011.4066056065474 513.1102736050802Q2022.7397622612928 500.24345603220644 2022.7397622612928 490.22486587871487Q2022.7397622612928 480.20627572522335 2013.5975497753032 473.21517205946685Q2004.455337289314 466.2041507194489 1988.5610332287054 466.2041507194489L1988.5610332287054 466.2041507194489Q1977.8652421503255 466.2041507194489 1968.3246761791077 469.76941441224204Q1958.8040278821516 473.35459577929674 1955.2387641893586 476.14307017589476Q1951.673500496565 478.9514622467542 1951.673500496565 479.9274282855635L1951.673500496565 479.9274282855635Q1951.673500496565 480.48512316488313 1952.5100428155445 480.48512316488313L1952.5100428155445 480.48512316488313L1955.5176116290183 479.9274282855635Q1956.1549772053834 479.9274282855635 1956.1549772053834 480.20627572522335Q1956.1549772053834 480.48512316488313 1954.9599167496988 481.18224176403265Q1953.7648562940137 481.8793603631822 1953.0279023463415 482.69598500790016Q1952.2909483986693 483.49269197835673 1949.363050282241 485.2852826618841Q1946.4152344915517 487.0778733454114 1944.025113580182 487.21729706524127ZM2063.292147057533 487.35672078507116L2063.292147057533 487.35672078507116Q2063.292147057533 491.8979505166737 2079.186451118142 491.8979505166737L2079.186451118142 491.8979505166737Q2083.11023294764 491.8979505166737 2084.982494328213 491.0614081976943L2084.982494328213 491.0614081976943Q2089.9619128935674 488.69120496058594 2097.211946324722 488.69120496058594Q2104.461979755877 488.69120496058594 2104.461979755877 492.39589237320905L2104.461979755877 492.39589237320905Q2104.461979755877 493.8698002685538 2103.2270839516686 496.69811001367464Q2102.012105821723 499.5264197587955 2101.41457559388 500.16378533516075Q2100.8170453660377 500.80115091152607 2096.893263536539 501.8767053216424Q2092.9694817070404 502.97217740602025 2091.8142565998787 503.0717657773273Q2090.659031492716 503.1713541486344 2090.280595681749 503.25102484568004Q2089.9021598707823 503.3107778684643 2089.3643826657244 503.3904485655099Q2088.8465231349273 503.4502015882942 2087.0140971028777 503.7688843764768Q2085.201588745089 504.08756716465945 2084.365046426109 503.729049027954L2084.365046426109 503.729049027954Q2061.180873585823 515.1418763797446 2052.496767607846 528.805400923075L2052.496767607846 528.805400923075Q2048.572985778347 534.9599622698521 2048.572985778347 539.3816859558862L2048.572985778347 539.3816859558862Q2048.572985778347 546.3130365988584 2058.173304772349 546.3130365988584L2058.173304772349 546.3130365988584Q2065.6623502946413 546.3130365988584 2077.2146013662614 540.4373226917412Q2088.7668524378823 534.5416911103623 2097.709888181257 526.1762679205683Q2106.633006250371 517.8108447307741 2106.633006250371 511.656283383997L2106.633006250371 511.656283383997Q2106.633006250371 509.68443363211696 2109.560904366799 509.68443363211696L2109.560904366799 509.68443363211696Q2116.3528312899416 509.68443363211696 2116.3528312899416 517.7311740337284L2116.3528312899416 517.7311740337284Q2116.3528312899416 521.5155321433972 2113.0664150368084 526.7339627998879Q2109.7799987836743 531.9523934563786 2103.9042848765575 537.310247832699Q2098.008653295178 542.6681022090195 2090.7984552125463 547.2890026376677Q2083.5882571299144 551.909903066316 2074.8045627806305 554.8577188570052Q2066.0208684313466 557.7856169734332 2059.926060107354 557.7856169734332Q2053.831251783361 557.7856169734332 2050.086729022215 556.6303918662711Q2046.3422062610691 555.4751667591092 2043.0557900079355 553.164716544785L2043.0557900079355 553.164716544785Q2035.9053449480878 548.2052156536929 2035.9053449480878 538.126872477417L2035.9053449480878 538.126872477417Q2035.9053449480878 532.649512055528 2038.853160738777 527.0128102395477Q2041.781058855205 521.3761084235673 2046.541383003683 516.7552079949191L2046.541383003683 516.7552079949191Q2055.3051596787054 508.07110201694235 2065.323749832197 502.33481182965494L2065.323749832197 502.33481182965494Q2050.8834359926714 499.04839557652156 2050.8834359926714 487.4961445049011L2050.8834359926714 487.4961445049011Q2050.8834359926714 474.46998553793594 2070.9206162996543 463.6746060882492L2070.9206162996543 463.6746060882492Q2082.054596211785 457.73913915834765 2095.08075517875 455.1498415043638L2095.08075517875 455.1498415043638Q2101.235316525527 453.8751103516332 2105.35827509764 453.8751103516332L2105.35827509764 453.8751103516332Q2113.763533635957 453.8751103516332 2118.045833602161 455.209594527148L2118.045833602161 455.209594527148Q2120.6351312561455 456.46440800561714 2122.24846287132 458.7549405456798Q2123.8617944864945 461.0255554114811 2123.8617944864945 462.6588047009171Q2123.8617944864945 464.3119716646145 2123.443523327005 465.64645584012925Q2123.005334493254 466.980940015644 2122.029368454445 467.7378116375778L2122.029368454445 467.7378116375778Q2120.6351312561455 468.79344837343274 2118.882375921141 469.35114325275237Q2117.1296205861363 469.908838132072 2116.850773146477 470.0482618519019L2116.850773146477 470.0482618519019Q2111.393330398849 472.358712066226 2107.46954856935 472.358712066226L2107.46954856935 472.358712066226Q2100.4585272293325 472.358712066226 2099.8410793272287 470.54620370843725L2099.8410793272287 470.54620370843725Q2099.980503047059 468.73369535064853 2101.3747402453573 466.34357443927877L2101.3747402453573 466.34357443927877Q2094.722237042045 466.6224218789386 2087.591709656459 469.03246046456974Q2080.4412645966113 471.46241672446234 2075.22283394012 474.70899762907294Q2070.0044032836295 477.9754962079449 2066.6383163334503 481.46108920369244Q2063.292147057533 484.96659987370145 2063.292147057533 487.35672078507116ZM2220.6218560484467 530.0004613787598L2220.6218560484467 530.0004613787598L2221.1795509277663 532.649512055528Q2221.1795509277663 534.3425143677482 2219.4267955927617 536.6529645820724L2219.4267955927617 536.6529645820724Q2214.8058951641133 542.6681022090195 2204.627963616531 550.4758305194941Q2194.430114394687 558.2835588299686 2189.610037223424 558.2835588299686Q2184.7700423779006 558.2835588299686 2182.041321004087 555.4552490848478Q2179.3125996302733 552.6070216654655 2179.3125996302733 548.9620872756266L2179.3125996302733 548.9620872756266Q2179.3125996302733 544.6200342866382 2188.414976767739 529.7813669618843L2188.414976767739 529.7813669618843Q2202.07850131107 507.73250155449836 2223.290824399476 478.2543436476047L2223.290824399476 478.2543436476047Q2218.809347690658 482.8752440762529 2199.4692859828247 503.1713541486344L2199.4692859828247 503.1713541486344Q2156.686121669306 547.9861212368173 2149.475923586674 553.9415058409802L2149.475923586674 553.9415058409802Q2148.3007808052507 554.9174718797896 2146.0102482651873 554.9174718797896Q2143.7396333993865 554.9174718797896 2141.2100887681872 553.065128173478Q2138.7004618112487 551.2127844671664 2138.7004618112487 548.9023342528424L2138.7004618112487 548.9023342528424L2138.7004618112487 548.5438161161369Q2138.979309250908 545.6159179997089 2152.2046449604877 519.7627768083928Q2165.449898344328 493.929553291338 2174.4128517619647 478.6726148070944L2174.4128517619647 478.6726148070944Q2161.1675983781242 493.2324346921885 2147.6634152288852 511.15834152746163L2147.6634152288852 511.15834152746163Q2121.96961543166 545.1976468402192 2110.0588462233345 569.1386913024396L2110.0588462233345 569.1386913024396Q2109.0032094874796 571.3694708197179 2107.46954856935 571.3694708197179Q2105.9358876512215 571.3694708197179 2102.988071860532 570.6125991977842L2102.988071860532 570.6125991977842Q2096.833510513755 568.919596885564 2096.833510513755 564.7169676164056L2096.833510513755 564.7169676164056Q2096.833510513755 562.2073406594673 2107.111030432645 546.6914724098253Q2117.4084680257965 531.1756041601834 2130.9923218720814 512.811508491159Q2144.5761757183654 494.42749514787334 2159.1359956034603 477.39788365436385L2159.1359956034603 477.39788365436385Q2179.2329289332274 453.8751103516332 2184.9891367947757 453.8751103516332L2184.9891367947757 453.8751103516332Q2185.8854321365397 453.8751103516332 2186.7418921297804 454.33321685964574Q2187.57843444876 454.7913233676583 2187.7776111913736 454.7913233676583Q2187.9967056082496 454.7913233676583 2188.195882350864 454.57222895078274L2188.195882350864 454.57222895078274Q2189.1120953668888 453.4568391921435 2191.8208990664416 453.4568391921435Q2194.509785091732 453.4568391921435 2197.059247397193 454.5124759279985Q2199.6286273769156 455.56811266385347 2199.6286273769156 456.8826791651068L2199.6286273769156 456.8826791651068Q2199.6286273769156 457.73913915834765 2192.617606036898 470.2673562687774L2192.617606036898 470.2673562687774Q2169.1545857569517 511.85546012661115 2161.10784535534 527.411163724776L2161.10784535534 527.411163724776Q2168.8159852945073 518.0896921704339 2183.1367930884644 502.6933299663604Q2197.4576008824215 487.27705008802553 2213.2124812232005 471.9404409067363L2213.2124812232005 471.9404409067363Q2233.727685712458 452.06260199384445 2237.71122056474 452.06260199384445L2237.71122056474 452.06260199384445Q2239.3245521799154 452.06260199384445 2241.774426114069 452.75972059299403L2241.774426114069 452.75972059299403Q2246.116479103057 454.0145340714631 2250.1000139553407 454.0145340714631L2250.1000139553407 454.0145340714631Q2251.2353213882407 454.2336284883387 2252.032028358698 454.97058243601106Q2252.8287353291544 455.70753638368336 2252.8287353291544 456.46440800561714Q2252.8287353291544 457.2411973018123 2252.410464169665 457.73913915834765L2252.410464169665 457.73913915834765Q2229.664480163129 487.97416868717505 2214.0490235421803 511.0985885046774Q2198.4335669212305 534.2030906479183 2194.788632531392 542.309584072314L2194.788632531392 542.309584072314Q2202.138254333854 540.7759231541852 2216.698074218948 524.7421953737464L2216.698074218948 524.7421953737464Q2217.3354397953135 523.9056530547671 2217.614287234973 523.6268056151072Q2217.893134674633 523.3479581754474 2218.112229091508 523.0691107357875L2218.112229091508 523.0691107357875Q2219.2873718729325 521.6549558632271 2219.924737449297 524.8218660707921L2219.924737449297 524.8218660707921Q2220.2035848889573 526.6343744285808 2220.303173260264 527.3713283762531Q2220.4226793058324 528.1082823239256 2220.522267677139 528.9049892943821Q2220.6218560484467 529.7216139391 2220.6218560484467 530.0004613787598ZM2333.8538342245884 458.49601078028144L2337.777616054087 458.57568147732707L2340.4266667308557 458.4362577574972Q2341.6217271865407 458.4362577574972 2343.1354704304076 459.4719768190907Q2344.6292960000146 460.52761355494573 2344.6292960000146 461.3044028511409L2344.6292960000146 461.3044028511409Q2344.29069553757 462.8380637692698 2328.117544037301 489.4480765825197L2328.117544037301 489.4480765825197Q2277.626239784615 572.425107555573 2272.507397499432 583.0810632854298L2272.507397499432 583.0810632854298Q2275.0966951534156 580.3324242373546 2278.223770012458 577.7232089091092Q2281.3309271972385 575.0940759066025 2281.729280682467 575.0940759066025Q2282.107716493434 575.0940759066025 2282.5259876529235 575.5521824146151Q2282.944258812413 576.0102889226275 2282.944258812413 576.4484777563787Q2282.944258812413 576.9065842643913 2282.3068932360475 577.6037028635408Q2281.6894453339437 578.3207391369517 2277.9449225727976 583.1806516567369Q2274.2003998116525 588.0405641765221 2272.367973779602 590.1120022997093Q2270.555465421813 592.1834404228962 2269.121392874991 594.5138083114819Q2267.6873203281693 596.8640938743288 2266.671518940837 597.840059913138Q2265.6557175535054 598.8359436262087 2264.181809658161 598.8359436262087L2264.181809658161 598.8359436262087Q2259.899509691956 598.8359436262087 2257.0114469240516 595.1511738878471Q2254.1034664818844 591.4664041494852 2254.1034664818844 588.9567771925472L2254.1034664818844 588.9567771925472Q2254.1034664818844 584.057029324239 2274.9373537593247 550.7148426106311Q2295.7513233625023 517.3925735712844 2311.665545097373 494.7660956103174L2311.665545097373 494.7660956103174Q2274.8975184108012 538.1866255002012 2253.1075827688137 551.7704793464861L2253.1075827688137 551.7704793464861Q2245.5587842237383 556.5308034949642 2240.7984600752598 556.5308034949642L2240.7984600752598 556.5308034949642Q2238.4880098609356 556.5308034949642 2236.197477320873 555.1963193194493Q2233.9268624550714 553.881752818196 2232.91106106774 551.8501500435317Q2231.8952596804074 549.8185472688674 2231.8952596804074 544.6001166123767Q2231.8952596804074 539.3816859558862 2236.3767363892257 529.6021078935316Q2240.858213098044 519.8424475054385 2247.9289874608457 508.70846759330766L2247.9289874608457 508.70846759330766Q2260.4771222455374 488.8306286804159 2271.0334896040868 474.6691622805501L2271.0334896040868 474.6691622805501Q2261.652265026961 483.1540915159127 2255.71679809706 483.1540915159127L2255.71679809706 483.1540915159127Q2252.9681590489845 483.1540915159127 2252.091781381482 482.3374668711947Q2251.2353213882407 481.5407599007381 2249.721578144374 479.82783991425646Q2248.207834900506 478.1149199277748 2248.207834900506 476.04348180458766Q2248.207834900506 473.9720436814005 2248.944788848178 472.7769832257157Q2249.6817427958504 471.60184044429224 2250.319108372216 470.964474867927L2250.319108372216 470.964474867927Q2252.6893116093242 468.59427163081864 2253.4063478827347 468.1560827970675Q2254.1034664818844 467.7378116375778 2255.119267869217 467.7378116375778Q2256.1350692565493 467.7378116375778 2256.1350692565493 468.05649442576043Q2256.1350692565493 468.37517721394306 2255.398115308876 469.0125427903083Q2254.661161361204 469.62999069241215 2254.661161361204 469.9885088291176Q2254.661161361204 470.3271092915617 2255.418032983138 470.3271092915617Q2256.1948222793335 470.3271092915617 2257.3898827350185 469.94867348059483Q2258.5849431907027 469.57023766962794 2260.497039919799 468.5544362822958Q2262.4290543231564 467.53863489496365 2264.0025505898075 466.6622572274614Q2265.5760468564595 465.78587955995914 2268.7230393897635 463.9335358536476Q2271.8899495973283 462.081192147336 2273.5231988867636 461.164979131311Q2275.1763658504615 460.2487661152859 2278.363193732288 457.89848055243897Q2281.5500216141136 455.56811266385347 2283.083682532243 454.71165267061264L2283.083682532243 454.71165267061264Q2285.6729801862266 453.1779917524837 2287.3261471499245 453.81535732884896Q2288.95939643936 454.43280523095285 2289.915444803908 454.65189964782843Q2290.8515754941945 454.85107639044253 2291.5885294418667 455.24942987567084Q2292.32548338954 455.6278656866377 2292.9628489659044 456.12580754317304L2292.9628489659044 456.12580754317304Q2295.1338754603985 457.65946846130197 2295.1338754603985 459.7309065844891Q2295.1338754603985 461.80234470767624 2293.142108034257 464.53106608149Q2291.130422933855 467.25978745530387 2284.199072290882 477.4377190028867Q2277.2677216479096 487.635568224731 2268.5636979956716 500.8210685857875Q2259.839756669172 514.0264866211053 2253.227088814383 525.5787376927258Q2246.614420959593 537.1309887643463 2246.614420959593 540.1385575778199L2246.614420959593 540.1385575778199Q2246.614420959593 541.1941943136749 2247.1721158389128 541.1941943136749Q2247.7298107182323 541.1941943136749 2251.295074411025 538.465472939861L2251.295074411025 538.465472939861Q2270.0575235652777 523.9654060775513 2299.1174103126814 493.01334027531294L2299.1174103126814 493.01334027531294Q2322.998701752118 467.59838791774786 2327.281001718322 461.58325029080066L2327.281001718322 461.58325029080066Q2328.5955682195754 459.77074193301195 2329.890217046567 459.1333763566467Q2331.184865873559 458.49601078028144 2333.8538342245884 458.49601078028144L2333.8538342245884 458.49601078028144Z " fill="#ddaa88" transform="matrix(0.3731933242857439,0,0,0.3731933242857439,0,104.50792843138184)"/></g></svg>